<?xml version="1.0" encoding="UTF-8"?>
<svg xmlns="http://www.w3.org/2000/svg" xmlns:xlink="http://www.w3.org/1999/xlink" width="20px" height="20px" viewBox="0 0 20 20" version="1.1">
<g id="surface1">
<path style=" stroke:none;fill-rule:nonzero;fill:rgb(0%,0%,0%);fill-opacity:1;" d="M 3 0.0429688 C 1.550781 0.257812 0.46875 1.234375 0.105469 2.644531 L 0.0195312 2.988281 L 0.0195312 9.980469 C 0.0195312 16.539062 0.0234375 16.992188 0.0898438 17.265625 C 0.179688 17.65625 0.378906 18.128906 0.566406 18.417969 C 0.792969 18.765625 1.335938 19.285156 1.699219 19.5 C 2.378906 19.902344 2.929688 20 4.453125 20 L 5.332031 20 L 7.199219 18.484375 L 9.0625 16.972656 L 7.859375 16.960938 L 6.65625 16.953125 L 6.132812 16.425781 L 5.605469 15.898438 L 6.660156 14.84375 L 11.691406 14.84375 L 11.996094 14.597656 L 12.300781 14.355469 L 12.300781 13.007812 L 12.304688 11.660156 L 12.9375 11.027344 C 13.289062 10.675781 13.589844 10.390625 13.613281 10.390625 C 13.636719 10.390625 13.824219 10.5625 14.03125 10.769531 L 14.414062 11.152344 L 14.421875 11.886719 L 14.433594 12.621094 L 17.214844 10.363281 L 20 8.109375 L 20 5.816406 C 20 4.488281 19.984375 3.355469 19.957031 3.121094 C 19.878906 2.335938 19.578125 1.664062 19.050781 1.105469 C 18.570312 0.601562 18.046875 0.289062 17.371094 0.109375 L 17.050781 0.0234375 L 10.136719 0.015625 C 6.332031 0.0117188 3.121094 0.0234375 3 0.0429688 Z M 13.867188 3.574219 L 14.394531 4.101562 L 13.339844 5.15625 L 8.066406 5.15625 L 7.539062 4.625 L 7.011719 4.097656 L 7.527344 3.59375 C 7.980469 3.152344 8.0625 3.089844 8.191406 3.078125 C 8.273438 3.070312 9.464844 3.058594 10.839844 3.054688 L 13.339844 3.046875 Z M 7.695312 6.933594 L 7.695312 8.339844 L 6.378906 9.65625 L 5.613281 8.828125 L 5.621094 7.179688 L 5.628906 5.527344 L 6.144531 5.007812 L 6.660156 4.492188 L 7.695312 5.527344 Z M 12.734375 9.472656 L 13.261719 10 L 12.207031 11.054688 L 7.832031 11.054688 L 6.777344 10 L 7.832031 8.945312 L 12.207031 8.945312 Z M 12.734375 9.472656 "/>
<path style=" stroke:none;fill-rule:nonzero;fill:rgb(0%,0%,0%);fill-opacity:1;" d="M 17.207031 10.425781 C 14.457031 12.65625 14.433594 12.675781 14.421875 12.828125 L 14.410156 12.980469 L 14.597656 12.824219 C 14.742188 12.703125 19.941406 8.496094 19.992188 8.453125 C 20 8.449219 20 8.386719 19.992188 8.3125 L 19.980469 8.179688 Z M 17.207031 10.425781 "/>
<path style=" stroke:none;fill-rule:nonzero;fill:rgb(0%,0%,0%);fill-opacity:1;" d="M 12.03125 14.625 L 11.785156 14.824219 L 11.917969 14.851562 C 12.054688 14.878906 12.101562 14.859375 12.3125 14.679688 C 12.414062 14.59375 12.414062 14.585938 12.347656 14.507812 L 12.28125 14.425781 Z M 12.03125 14.625 "/>
<path style=" stroke:none;fill-rule:nonzero;fill:rgb(0%,0%,0%);fill-opacity:1;" d="M 7.289062 18.464844 L 5.421875 19.980469 L 5.582031 19.992188 C 5.738281 20.003906 5.765625 19.984375 7.390625 18.667969 C 8.300781 17.929688 9.144531 17.242188 9.269531 17.140625 L 9.496094 16.953125 L 9.328125 16.953125 C 9.160156 16.953125 9.105469 16.992188 7.289062 18.464844 Z M 7.289062 18.464844 "/>
</g>
</svg>
